<svg width="51" height="51" viewBox="0 0 51 51" fill="none" xmlns="http://www.w3.org/2000/svg">
<g clip-path="url(#clip0_252_3515)">
<path d="M6.375 40.375H44.625" stroke="#4D82A3" stroke-width="2" stroke-linejoin="round"/>
<path d="M10.625 14.875C10.625 14.3114 10.8489 13.7709 11.2474 13.3724C11.6459 12.9739 12.1864 12.75 12.75 12.75H38.25C38.8136 12.75 39.3541 12.9739 39.7526 13.3724C40.1511 13.7709 40.375 14.3114 40.375 14.875V31.875C40.375 32.4386 40.1511 32.9791 39.7526 33.3776C39.3541 33.7761 38.8136 34 38.25 34H12.75C12.1864 34 11.6459 33.7761 11.2474 33.3776C10.8489 32.9791 10.625 32.4386 10.625 31.875V14.875Z" stroke="#4D82A3" stroke-width="2" stroke-linejoin="round"/>
</g>
<defs>
<clipPath id="clip0_252_3515">
<rect width="51" height="51" fill="white"/>
</clipPath>
</defs>
</svg>
