<svg width="51" height="51" viewBox="0 0 51 51" fill="none" xmlns="http://www.w3.org/2000/svg">
<path d="M12.75 10.625C12.75 9.49783 13.1978 8.41683 13.9948 7.6198C14.7918 6.82277 15.8728 6.375 17 6.375H34C35.1272 6.375 36.2082 6.82277 37.0052 7.6198C37.8022 8.41683 38.25 9.49783 38.25 10.625V40.375C38.25 41.5022 37.8022 42.5832 37.0052 43.3802C36.2082 44.1772 35.1272 44.625 34 44.625H17C15.8728 44.625 14.7918 44.1772 13.9948 43.3802C13.1978 42.5832 12.75 41.5022 12.75 40.375V10.625Z" stroke="#4D82A3" stroke-width="2" stroke-linejoin="round"/>
<path d="M23.375 8.5H27.625" stroke="#4D82A3" stroke-width="2" stroke-linejoin="round"/>
<path d="M25.505 36.5078L26.505 36.5078" stroke="#4D82A3" stroke-width="2" stroke-linecap="round" stroke-linejoin="round"/>
</svg>
