<svg width="51" height="51" viewBox="0 0 51 51" fill="none" xmlns="http://www.w3.org/2000/svg">
<g clip-path="url(#clip0_249_3486)">
<path d="M28.538 15.0902L16.5853 16.5843L10.609 41.9838L36.0084 36.0074L37.5025 24.0547M37.5025 24.0547L28.538 15.0902M37.5025 24.0547L38.9966 25.5488L47.9611 16.5843L36.0084 4.63161L27.0439 13.5961L28.538 15.0902M10.609 41.9838L20.3205 32.2722M20.3205 32.2722C21.5583 33.5099 23.565 33.5099 24.8028 32.2722C26.0405 31.0345 26.0405 29.0277 24.8028 27.7899C23.565 26.5522 21.5583 26.5522 20.3205 27.7899C19.0828 29.0277 19.0828 31.0345 20.3205 32.2722Z" stroke="#4D82A3" stroke-width="2" stroke-linejoin="round"/>
</g>
<defs>
<clipPath id="clip0_249_3486">
<rect width="51" height="51" fill="white"/>
</clipPath>
</defs>
</svg>
